<svg xmlns="http://www.w3.org/2000/svg" style="display: none;"><symbol id="mental" viewBox="0 0 512 512"><title>mental</title><path style="fill:#E3E3E1;" d="M428.736,63.265C387.938,22.468,333.697,0,276.001,0c-57.696,0-111.938,22.468-152.735,63.265 c-40.349,40.349-62.769,93.844-63.257,150.83l-39.164,78.327c-1.87,3.739-0.545,8.287,3.039,10.438L60,324.529V440 c0,4.418,3.582,8,8,8h72v56c0,4.418,3.582,8,8,8h256c4.418,0,8-3.582,8-8V383.812c50.892-41.258,80-102.196,80-167.812 C492.001,158.304,469.533,104.062,428.736,63.265z"/><path style="fill:#838076;" d="M268.001,480c-4.418,0-8-3.582-8-8V272c0-4.418,3.582-8,8-8s8,3.582,8,8v200 C276.001,476.418,272.419,480,268.001,480z"/><path style="fill:#FF82A4;" d="M393.767,130.783c-2.328-19.599-11.198-37.747-24.977-51.102 C347.099,58.655,309.612,47.732,268,77.94c-41.611-30.208-79.096-19.287-100.79,1.741c-13.779,13.354-22.649,31.502-24.977,51.102 c-2.481,20.892,2.976,41.496,15.367,58.017c48.723,64.964,104.881,89.539,107.249,90.553c1.996,0.856,4.306,0.856,6.303,0 c2.367-1.014,58.525-25.589,107.249-90.553C390.792,172.278,396.25,151.674,393.767,130.783z"/><path style="fill:#F5577E;" d="M179.953,188.8c-12.391-16.521-17.849-37.125-15.367-58.017 c2.328-19.599,11.198-37.747,24.977-51.102c9.825-9.523,22.888-16.973,38.107-19.469c-24.817-3.937-46.099,5.549-60.46,19.469 c-13.779,13.354-22.649,31.502-24.977,51.102c-2.481,20.892,2.976,41.496,15.367,58.017 c48.723,64.964,104.881,89.539,107.249,90.553c1.996,0.856,4.306,0.856,6.303,0c0.496-0.213,3.364-1.466,8.025-3.905 C261.607,266.254,218.461,240.144,179.953,188.8z"/><g> <path style="fill:#7ECFC5;" d="M364.543,306.172c-21.349-5.697-45.065-0.19-61.813,16.558 c-16.748,16.748-22.255,40.464-16.558,61.813c21.349,5.697,45.065,0.19,61.813-16.558 C364.733,351.237,370.24,327.52,364.543,306.172z"/> <path style="fill:#7ECFC5;" d="M171.458,306.172c21.348-5.697,45.065-0.19,61.813,16.558 c16.748,16.748,22.255,40.464,16.558,61.813c-21.349,5.697-45.065,0.19-61.813-16.558 C171.268,351.237,165.761,327.52,171.458,306.172z"/> </g></symbol><symbol id="leaf" viewBox="0 0 512 512"><title>leaf</title><path style="fill:#8ADBA1;" d="M92.548,350.478c19.794,6.501,35.202,21.91,41.704,41.704c9.721,29.596,34.878,64.524,88.197,65.264 C378.965,459.62,501.171,195.142,482.921,57.05c-3.805-28.793-26.448-51.435-55.241-55.241 C289.588-16.442,25.11,105.765,27.284,262.28C28.025,315.6,62.952,340.757,92.548,350.478z"/><path style="fill:#7ACF90;" d="M199.054,250.91c-49.467-16.602-25.078-147.948,37.437-214.643 C126.734,81.688,25.938,165.411,27.284,262.28c0.741,53.32,35.668,78.477,65.264,88.197c19.794,6.501,35.203,21.91,41.704,41.704 c9.72,29.596,34.877,64.524,88.197,65.264c64.923,0.902,123.941-44.078,169.482-106.885 C258.265,400.494,192.843,286.825,199.054,250.91z"/><g> <path style="fill:#5FB87D;" d="M378.254,205.68c-1.549,0-3.111-0.478-4.452-1.469c-9.197-6.798-26.216-12.578-46.691-15.857 c-19.32-3.094-35.137-2.887-40.776-1.084c-3.948,1.262-8.166-0.913-9.429-4.857c-1.262-3.945,0.913-8.166,4.858-9.429 c16.795-5.376,75.351,0.241,100.954,19.165c3.331,2.462,4.035,7.158,1.573,10.489C382.82,204.627,380.552,205.68,378.254,205.68z"/> <path style="fill:#5FB87D;" d="M209.69,241.81c-0.391,0-0.785-0.03-1.184-0.094c-4.091-0.648-6.882-4.491-6.232-8.582 c5.61-35.378-11.339-67.365-30.967-77.851c-3.653-1.952-5.033-6.496-3.081-10.149c1.951-3.652,6.493-5.032,10.149-3.081 c13.165,7.033,24.426,20.204,31.707,37.086c7.517,17.426,10.005,37.436,7.006,56.345C216.502,239.176,213.315,241.81,209.69,241.81 z"/> <path style="fill:#5FB87D;" d="M255.923,336.196c-1.665,0.001-3.341-0.552-4.732-1.686c-24.318-19.815-61.504-19.609-79.644-16.364 c-4.073,0.731-7.974-1.985-8.703-6.062c-0.73-4.078,1.984-7.974,6.063-8.704c5.691-1.019,56.63-9.124,91.759,19.502 c3.212,2.616,3.693,7.34,1.077,10.552C260.26,335.252,258.101,336.196,255.923,336.196z"/> <path style="fill:#5FB87D;" d="M355.085,108.414c-0.834,0-1.683-0.14-2.513-0.436c-3.902-1.388-5.941-5.676-4.554-9.579 c3.738-10.514,3.904-31.366-2.29-48.061c-1.441-3.883,0.539-8.2,4.422-9.641c3.886-1.442,8.2,0.54,9.641,4.423 c6.833,18.415,7.825,42.936,2.36,58.304C361.06,106.497,358.169,108.414,355.085,108.414z"/> </g><path style="fill:#67C787;" d="M96.193,512c-8.752,0-16.763-5.836-19.143-14.691c-25.134-93.489,44.499-193.924,107.34-261.715 c71.091-76.691,155.637-136.642,192.967-154.718c9.854-4.776,21.722-0.653,26.496,9.208c4.775,9.86,0.652,21.723-9.207,26.497 c-33.543,16.242-114.316,73.871-181.161,145.982c-37.15,40.076-64.672,78.737-81.799,114.906 c-19.373,40.916-24.867,77.77-16.325,109.54c2.845,10.58-3.426,21.461-14.005,24.306C99.629,511.779,97.898,512,96.193,512z"/><path style="fill:#5FB87D;" d="M182.298,237.864C120.017,305.614,52.194,404.856,77.05,497.309C79.43,506.164,87.441,512,96.193,512 c1.705,0,3.436-0.221,5.162-0.685c10.579-2.844,16.85-13.726,14.005-24.306c-8.541-31.77-3.048-68.625,16.325-109.54 c15.286-32.28,38.857-66.544,70.156-102.028C189.492,274.446,178.283,254.146,182.298,237.864z"/></symbol><symbol id="sprout" viewBox="0 0 512 512"><title>sprout</title><path style="fill:#B4E66E;" d="M378.924,94.92c-0.471-3.347-3.194-6.07-6.542-6.542c-21.275-2.995-44.417,4.226-61.642,21.451 s-24.446,40.368-21.451,61.642c0.471,3.347,3.194,6.07,6.542,6.542c21.275,2.995,44.417-4.226,61.642-21.451 C374.698,139.338,381.919,116.195,378.924,94.92z"/><path style="fill:#A0D755;" d="M378.924,94.92c-0.236-1.674-1.035-3.19-2.192-4.349l-85.249,85.249 c1.158,1.158,2.675,1.957,4.349,2.192c21.275,2.996,44.418-4.226,61.642-21.45C374.697,139.338,381.919,116.195,378.924,94.92z"/><path style="fill:#B4E66E;" d="M169.071,0.234c-4.049,0.385-7.221,3.557-7.606,7.606c-1.49,15.683,4.138,32.414,16.742,45.018 S207.542,71.09,223.225,69.6c4.049-0.385,7.221-3.557,7.606-7.606c1.49-15.683-4.138-32.414-16.742-45.018 C201.485,4.372,184.754-1.256,169.071,0.234z"/><path style="fill:#A0D755;" d="M178.207,52.858c12.604,12.604,29.335,18.232,45.018,16.743c2.025-0.192,3.83-1.081,5.177-2.429 L163.894,2.663c-1.348,1.347-2.237,3.152-2.429,5.177C159.975,23.523,165.603,40.254,178.207,52.858z"/><path style="fill:#B4E66E;" d="M91.97,131.426c-3.296,0.559-5.956,3.219-6.515,6.515c-5.445,32.127,5.079,67.524,31.232,93.676 s61.55,36.676,93.676,31.232c3.296-0.559,5.956-3.219,6.515-6.515c5.445-32.127-5.079-67.524-31.232-93.676 S124.097,125.981,91.97,131.426z"/><path style="fill:#A0D755;" d="M116.687,231.617c26.152,26.152,61.55,36.676,93.677,31.232c1.648-0.279,3.136-1.084,4.284-2.231 L87.687,133.657c-1.147,1.147-1.951,2.636-2.231,4.284C80.011,170.067,90.535,205.465,116.687,231.617z"/><path style="fill:#9B735A;" d="M411.733,503.873c-12.546-28.691-41.145-48.762-74.462-48.762c-2.135,0-4.244,0.107-6.329,0.293 c-4.171,0.372-8.232-0.963-11.578-3.48c-17.654-13.282-39.569-21.194-63.363-21.194s-45.709,7.912-63.362,21.194 c-3.346,2.518-7.407,3.853-11.578,3.48c-2.086-0.186-4.194-0.293-6.329-0.293c-33.318,0-61.917,20.07-74.462,48.762L411.733,503.873 L411.733,503.873z"/><path style="fill:#87BE4B;" d="M326.763,140.54c-3.175-3.175-8.317-3.175-11.492,0l-46,46.016c-1.83,1.833-3.534,3.757-5.143,5.743 v-62.267c0-23.873-9.302-46.325-26.183-63.214l-36.571-36.571c-3.175-3.175-8.317-3.175-11.492,0s-3.175,8.317,0,11.492 l36.571,36.571c13.81,13.817,21.421,32.19,21.421,51.722v156.149c-4.173-6.614-9.026-12.856-14.69-18.522l-69.595-69.595 c-3.175-3.175-8.317-3.175-11.492,0s-3.175,8.317,0,11.492l69.595,69.595c16.881,16.889,26.183,39.341,26.183,63.214v96.492h16.254 V238.262c0-15.183,5.913-29.468,16.643-40.214l45.992-46.016C329.937,148.857,329.937,143.714,326.763,140.54z"/><path style="fill:#8C5F50;" d="M273.546,432.193c-5.705-0.959-11.564-1.463-17.545-1.463c-23.794,0-45.709,7.912-63.363,21.193 c-3.346,2.518-7.407,3.853-11.578,3.48c-2.086-0.186-4.194-0.293-6.329-0.293c-33.318,0-61.917,20.07-74.462,48.762h105.929 C217.632,471.575,242.168,445.472,273.546,432.193z"/><path style="fill:#AE8B70;" d="M434.795,512H77.207c-4.492,0-8.127-3.635-8.127-8.127s3.635-8.127,8.127-8.127h357.587 c4.492,0,8.127,3.635,8.127,8.127S439.287,512,434.795,512z"/></symbol><symbol id="tree" viewBox="0 0 512 512"><title>tree</title><g> <path style="fill:#91CF96;" d="M260.339,303.729c-4.79,0-8.678-3.888-8.678-8.678c0-66.629,65.571-190.915,190.915-190.915 c4.79,0,8.678,3.888,8.678,8.678C451.254,179.443,385.684,303.729,260.339,303.729"/> <path style="fill:#91CF96;" d="M182.237,156.203c-103.65,0-156.203-49.638-156.203-147.525c0-4.79,3.888-8.678,8.678-8.678 c103.65,0,156.203,49.638,156.203,147.525C190.915,152.316,187.028,156.203,182.237,156.203"/> </g><g> <path style="fill:#5ABA63;" d="M216.97,470.093c-0.816,0-1.64-0.121-2.465-0.364c-4.591-1.354-7.22-6.179-5.858-10.778 c43.763-147.994-8.99-276.063-33.159-305.968c-3.011-3.732-2.439-9.199,1.293-12.21c3.732-3.003,9.181-2.43,12.201,1.302 c30.156,37.307,81.156,170.14,36.3,321.796C224.173,467.646,220.719,470.093,216.97,470.093"/> <path style="fill:#5ABA63;" d="M234.174,338.954c-0.911,0-1.848-0.148-2.768-0.46c-4.539-1.527-6.986-6.448-5.458-10.986 c3.341-9.928,20.575-31.345,51.243-63.636c45.993-48.458,48.961-48.128,53.014-47.677c4.764,0.547,8.183,4.851,7.637,9.607 c-0.33,2.89-2.048,5.285-4.408,6.604c-9.303,7.411-85.539,84.289-91.032,100.63C241.186,336.663,237.801,338.954,234.174,338.954"/> <path style="fill:#5ABA63;" d="M182.242,156.203c-2.352,0-4.703-0.946-6.413-2.82c-27.752-30.382-73.711-62.117-74.171-62.438 c-3.948-2.716-4.946-8.123-2.23-12.071c2.716-3.94,8.114-4.938,12.071-2.222c1.944,1.336,48.067,33.193,77.147,65.015 c3.228,3.541,2.985,9.034-0.555,12.262C186.424,155.457,184.333,156.203,182.242,156.203"/> </g><path style="fill:#864D18;" d="M459.932,459.932c0-14.379-11.654-26.034-26.034-26.034c-11.724,0-21.643,7.758-24.906,18.415 c-1.406,4.608-5.832,7.619-10.648,7.619c-4.105,0-7.68-2.317-9.849-5.797c-3.879-6.239-13.451-11.559-24.021-11.559 c0-14.379-11.655-26.034-26.034-26.034c-7.55,0-14.284,3.263-19.039,8.392c-3.662-9.945-13.138-17.07-24.35-17.07 c-14.379,0-26.034,11.654-26.034,26.034c-14.839,0-26.78,12.418-25.999,27.431c0.382,7.281,3.983,13.581,9.277,17.998 c0.148-0.338,0.391-0.616,0.495-0.981c3.263-10.657,13.182-18.415,24.906-18.415c14.379,0,26.034,11.655,26.034,26.034 c14.379,0,26.034,11.655,26.034,26.034h130.169c14.379,0,26.034-11.654,26.034-26.034 C485.966,471.587,474.312,459.932,459.932,459.932"/><path style="fill:#AF6D2D;" d="M303.728,485.966c0-14.379-11.655-26.034-26.034-26.034c-11.724,0-21.643,7.758-24.897,18.415 c-0.113,0.364-0.356,0.642-0.503,0.981c-5.294-4.417-8.895-10.717-9.277-17.998c-0.026-0.477,0.069-0.92,0.069-1.397h-17.46 c-11.724,0-21.643,7.758-24.906,18.415c-1.406,4.608-5.832,7.619-10.648,7.619c-4.105,0-7.68-2.317-9.85-5.797 c-3.879-6.239-13.451-11.559-24.021-11.559c0-14.379-11.654-26.034-26.034-26.034c-7.55,0-14.284,3.263-19.039,8.392 c-3.662-9.945-13.138-17.07-24.35-17.07c-14.379,0-26.034,11.654-26.034,26.034c-14.839,0-26.78,12.418-25.999,27.431 C35.483,501.448,48.118,512,62.22,512h267.542C329.762,497.621,318.107,485.966,303.728,485.966"/></symbol><symbol id="flower" viewBox="0 0 512 512"><title>flower</title><ellipse transform="matrix(0.8325 0.5541 -0.5541 0.8325 161.7939 -69.8006)" style="fill:#7EC66A;" cx="196.321" cy="232.645" rx="66.625" ry="46.348"/><path style="fill:#67B758;" d="M251.802,269.553c14.183-21.308,0.847-55.109-29.786-75.497c-1.138-0.757-2.311-1.502-3.463-2.201 c-13.211,11.221-39.207,37.879-47.895,79.363C201.291,291.607,237.62,290.862,251.802,269.553z"/><path style="fill:#92DD7A;" d="M255.632,277.22L255.632,277.22c-8.912,0-16.204-7.292-16.204-16.204V128.09 c0-8.912,7.292-16.204,16.204-16.204l0,0c8.912,0,16.204,7.292,16.204,16.204v132.925 C271.836,269.928,264.544,277.22,255.632,277.22z"/><path style="fill:#7EC66A;" d="M255.632,277.22c8.912,0,16.204-7.292,16.204-16.204v-75.235 c-7.583,2.433-19.638,8.334-32.407,22.566v52.669C239.429,269.927,246.72,277.22,255.632,277.22z"/><ellipse transform="matrix(0.8325 -0.5541 0.5541 0.8325 -76.1434 213.472)" style="fill:#B1EF97;" cx="314.93" cy="232.648" rx="66.625" ry="46.348"/><path style="fill:#92DD7A;" d="M323.571,280.219c-24.734-38.551-18.12-81.742-14.925-96.071c-6.545,2.411-13.094,5.72-19.397,9.915 c-30.632,20.388-43.967,54.19-29.786,75.497C271.076,287.01,297.544,290.662,323.571,280.219z"/><path style="fill:#FFEB99;" d="M298.256,64.925c72.617-42.072-42.825-108.49-42.698-24.566 c-0.127-83.925-115.368-17.159-42.624,24.694c-72.744-41.853-72.543,91.332,0.074,49.26c-72.617,42.072,42.825,108.49,42.698,24.566 c0.127,83.925,115.368,17.159,42.624-24.694C371.074,156.039,370.874,22.854,298.256,64.925z"/><circle style="fill:#A78966;" cx="255.629" cy="89.62" r="60.039"/><path style="fill:#957856;" d="M255.577,118.768c-5.117,0-9.987-1.309-14.476-3.891c-13.927-8.013-18.737-25.862-10.725-39.788 c5.188-9.016,14.886-14.616,25.312-14.616c5.117,0,9.987,1.309,14.476,3.891c6.747,3.882,11.577,10.158,13.603,17.672 c2.026,7.515,1.004,15.369-2.877,22.116C275.7,113.168,266.002,118.768,255.577,118.768z"/><path style="fill:#7DE2E2;" d="M128.404,327.387l14.461,148.551C144.856,496.396,162.053,512,182.608,512h146.784 c20.554,0,37.751-15.604,39.742-36.061l14.461-148.551H128.404V327.387z"/><path style="fill:#66D3D0;" d="M228.663,477.266l-2.132-38.083c-1.256-22.422,14.458-42.24,36.575-46.128l116.086-20.415 l4.405-45.252H128.404l14.461,148.551C144.857,496.396,162.053,512,182.608,512h76.265C228.437,512,228.663,477.266,228.663,477.266 z"/><path style="fill:#FF737D;" d="M369.992,354.829H142.009c-31.334,0-56.735-25.401-56.735-56.735l0,0 c0-31.334,25.401-56.735,56.735-56.735h227.983c31.334,0,56.735,25.401,56.735,56.735l0,0 C426.727,329.427,401.326,354.829,369.992,354.829z"/><g> <path style="fill:#FF5555;" d="M187.766,298.093L187.766,298.093c0-31.334,25.401-56.735,56.735-56.735H142.008 c-31.334,0-56.735,25.401-56.735,56.735l0,0c0,31.334,25.401,56.735,56.735,56.735h102.493 C213.167,354.829,187.766,329.427,187.766,298.093z"/> <path style="fill:#FF5555;" d="M369.992,331.651h-26.846c-4.268,0-7.726-3.458-7.726-7.726s3.458-7.726,7.726-7.726h26.846 c9.981,0,18.102-8.122,18.102-18.103c0-4.268,3.458-7.726,7.726-7.726c4.268,0,7.726,3.458,7.726,7.726 C403.548,316.598,388.494,331.651,369.992,331.651z"/> </g></symbol><symbol id="food" viewBox="0 0 54.819 54.819"><title>food</title><path style="fill:#436B1C;" d="M11.217,19.913c-0.335,0-0.663-0.169-0.852-0.476c-0.614-0.995-1.761-2.146-3.078-2.104 c-0.56-0.03-1.014-0.418-1.03-0.969c-0.017-0.553,0.417-1.014,0.969-1.031c2.107-0.063,3.904,1.534,4.841,3.055 c0.29,0.47,0.144,1.086-0.326,1.376C11.578,19.865,11.396,19.913,11.217,19.913z"/><g> <path style="fill:#88C057;" d="M31.684,6.597c-0.134-1.948-1.753-3.488-3.735-3.488c-0.006,0-0.011,0.001-0.017,0.001 c0.035-0.295,0.015-0.607-0.08-0.932c-0.268-0.914-1.072-1.616-2.018-1.729c-0.776-0.092-1.488,0.186-1.987,0.679 c-0.475-0.429-1.097-0.697-1.787-0.697c-1.479,0-2.677,1.199-2.677,2.677c0,0.005,0.001,0.009,0.001,0.014 c-1.797,0.136-3.214,1.635-3.214,3.467c0,0.28,0.037,0.551,0.099,0.812c-2.139,0.089-3.847,1.847-3.847,4.008 c0,0.732,0.199,1.416,0.541,2.007c-0.657,0.54-1.077,1.359-1.077,2.276c0,0.838,0.355,1.589,0.917,2.124 c2.412-1.971,4.946,4.621,7.93,9.884c0.991,1.748,11.698-0.114,12.551,0.972c0.972-0.874,1.6-16.094,1.627-17.431 C34.953,9.096,33.591,7.266,31.684,6.597z"/> </g><path style="fill:#EEAF4B;" d="M33.053,26.533l0.713-0.427c1.32-0.792,2.968-0.792,4.287,0l0.713,0.427 c1.32,0.792,2.968,0.792,4.287,0l2.015-0.896c0.296-0.826,0.502-1.424,0.584-1.689c1.88-6.047,3.091-12.414,3.256-18.765 c0.066-2.554-2.046-6.537-5.555-4.727c-3.449,1.778-5.919,8.597-7.655,11.835c-2.466,4.601-4.416,9.605-5.805,14.704 C30.951,27.262,32.089,27.111,33.053,26.533z"/><path style="fill:#ED3F32;" d="M7.055,25.506L8.4,26.313c1.545,0.927,3.475,0.927,5.02,0l0.346-0.208 c1.32-0.792,2.968-0.792,4.287,0l0.713,0.427c0.775,0.465,1.663,0.649,2.531,0.568c0.64-2.067,0.425-4.651-0.567-6.4 c-3.336-5.885-6.111-4.686-8.781-2.131c-0.512,0.49-1.138,0.849-1.82,1.044c-2.928,0.837-5.089,2.206-3.86,5.934 C6.486,25.389,6.788,25.346,7.055,25.506z"/><path style="fill:#A46F3E;" d="M35.592,24.356c-0.106,0-0.215-0.017-0.321-0.053c-0.523-0.178-0.803-0.746-0.625-1.269 c0.667-1.962,2.809-3.012,4.768-2.352c0.919,0.313,1.92-0.181,2.232-1.1c0.177-0.523,0.743-0.805,1.269-0.626 c0.523,0.178,0.803,0.746,0.625,1.269c-0.666,1.963-2.806,3.017-4.768,2.352c-0.918-0.312-1.919,0.183-2.232,1.1 C36.397,24.095,36.008,24.356,35.592,24.356z"/><path style="fill:#A46F3E;" d="M37.957,17.389c-0.106,0-0.215-0.017-0.321-0.053c-0.523-0.178-0.803-0.746-0.625-1.269 c0.323-0.951,0.997-1.72,1.897-2.164c0.9-0.444,1.919-0.511,2.871-0.188c0.921,0.314,1.92-0.181,2.232-1.101 c0.177-0.524,0.745-0.805,1.268-0.626c0.523,0.178,0.803,0.746,0.625,1.269c-0.666,1.964-2.806,3.016-4.768,2.353 c-0.445-0.152-0.923-0.121-1.344,0.087s-0.736,0.567-0.888,1.013C38.763,17.127,38.374,17.389,37.957,17.389z"/><path style="fill:#A46F3E;" d="M40.323,10.421c-0.106,0-0.215-0.017-0.322-0.053c-0.523-0.178-0.803-0.746-0.625-1.269 c0.584-1.722,2.463-2.646,4.185-2.064c0.33,0.112,0.682,0.09,0.993-0.063c0.311-0.153,0.544-0.419,0.656-0.748 c0.177-0.523,0.744-0.804,1.269-0.626c0.523,0.178,0.803,0.746,0.625,1.269c-0.284,0.835-0.875,1.51-1.665,1.899 c-0.791,0.39-1.686,0.447-2.521,0.164c-0.678-0.231-1.418,0.134-1.648,0.813C41.128,10.159,40.739,10.421,40.323,10.421z"/><g> <path style="fill:#DAE7EF;" d="M23.37,14.095c-0.945,1.257-2.436,2.745-1.862,5.373l1.544,7.065c0,0,0.001,0,0.001,0l0.713-0.427 c1.32-0.792,2.968-0.792,4.287,0l0.713,0.427c0.58,0.348,1.127,0.463,1.127,0.463c1.042-3.823,2.399-7.593,4.052-11.179 c-0.774-1.936-2.427-2.584-3.627-3.247c-0.007-0.004-0.014-0.008-0.02-0.011c-0.759-0.435-0.806-1.474-0.235-2.136 c0.225-0.261,0.329-0.62,0.251-0.98l-0.121-0.552c-0.133-0.608-0.739-0.996-1.346-0.863L22.77,9.354 c-0.608,0.133-0.996,0.739-0.863,1.346l0.121,0.552c0.08,0.368,0.334,0.653,0.656,0.792c0.739,0.319,1.19,1.144,0.812,1.855 C23.46,13.966,23.418,14.031,23.37,14.095z"/> </g><path style="fill:#FFFFFF;" d="M29.746,10.899l-6.879,1.503c-0.759,0.166-1.517-0.32-1.683-1.079l-0.099-0.452 c-0.166-0.759,0.32-1.517,1.079-1.683l6.879-1.503c0.759-0.166,1.517,0.32,1.683,1.079l0.099,0.452 C30.991,9.976,30.505,10.733,29.746,10.899z"/><path style="fill:#FBD490;" d="M46.816,25.332l-1.745,25.029c-0.128,2.499-2.191,4.459-4.693,4.459H12.307 c-2.502,0-4.565-1.96-4.693-4.459L5.911,26.153c-0.029-0.569,0.588-0.94,1.077-0.647l1.345,0.807c1.545,0.927,3.475,0.927,5.02,0 l0.346-0.208c1.32-0.792,2.968-0.792,4.287,0l0.713,0.428c1.32,0.792,2.968,0.792,4.287,0l0.713-0.428 c1.32-0.792,2.968-0.792,4.287,0l0.713,0.428c1.32,0.792,2.968,0.792,4.287,0l0.713-0.428c1.32-0.792,2.968-0.792,4.287,0 l0.713,0.428c1.32,0.792,2.968,0.792,4.287,0l3.387-1.505C46.588,24.932,46.828,25.097,46.816,25.332z"/><path style="fill:#E0B877;" d="M17.91,42h-7c-0.552,0-1-0.447-1-1s0.448-1,1-1h7c0.552,0,1,0.447,1,1S18.462,42,17.91,42z"/><path style="fill:#E0B877;" d="M19.91,46h-9c-0.552,0-1-0.447-1-1s0.448-1,1-1h9c0.552,0,1,0.447,1,1S20.462,46,19.91,46z"/><path style="fill:#E0B877;" d="M21.91,50h-11c-0.552,0-1-0.447-1-1s0.448-1,1-1h11c0.552,0,1,0.447,1,1S22.462,50,21.91,50z"/><path style="fill:#E0B877;" d="M27.91,50h-2c-0.552,0-1-0.447-1-1s0.448-1,1-1h2c0.552,0,1,0.447,1,1S28.462,50,27.91,50z"/></symbol><symbol id="calendar" viewBox="0 0 512 512"><title>calendar</title><g> <path style="fill:#BDC3C7;" d="M0,423.724v52.966C0,496.191,15.809,512,35.31,512H476.69c19.501,0,35.31-15.809,35.31-35.31 v-52.966H0z"/> <path style="fill:#E6E7E8;" d="M432.552,44.138h44.138c19.501,0,35.31,15.809,35.31,35.31v353.103 c0,19.501-15.809,35.31-35.31,35.31H35.31c-19.501,0-35.31-15.809-35.31-35.31V79.448c0-19.501,15.809-35.31,35.31-35.31H432.552z "/> <path style="fill:#E64C3C;" d="M512,79.448v61.793H0V79.448c0-19.501,15.809-35.31,35.31-35.31H476.69 C496.191,44.138,512,59.947,512,79.448z"/> <g> <path style="fill:#BDC3C7;" d="M97.103,0L97.103,0c9.751,0,17.655,7.904,17.655,17.655v52.966 c0,9.751-7.904,17.655-17.655,17.655l0,0c-9.751,0-17.655-7.904-17.655-17.655V17.655C79.448,7.904,87.353,0,97.103,0z"/> <path style="fill:#BDC3C7;" d="M414.897,0L414.897,0c9.751,0,17.655,7.904,17.655,17.655v52.966 c0,9.751-7.905,17.655-17.655,17.655l0,0c-9.751,0-17.655-7.904-17.655-17.655V17.655C397.241,7.904,405.146,0,414.897,0z"/> </g> </g><path style="fill:#FF5364;" d="M256,232.068c24.161-45.7,72.474-45.7,96.636-22.855c24.161,22.846,24.161,68.564,0,114.273 c-16.905,34.277-60.442,68.555-96.636,91.41c-36.237-22.855-79.731-57.132-96.636-91.41c-24.161-45.709-24.161-91.419,0-114.273 C183.526,186.359,231.839,186.368,256,232.068z"/></symbol><symbol id="heart" viewBox="0 0 512 512"><title>heart</title><path style="fill:#E0B394;" d="M386.553,309.104l28.721-59.638c5.856-12.173,20.119-17.711,32.627-12.741 c0.063,0.025,0.125,0.049,0.189,0.075c13.192,5.352,19.504,20.414,14.09,33.581l-5.891,14.323"/><path style="fill:#FD5D65;" d="M245.307,283.039c-39.415-29.323-72.383-67.804-72.383-106.893c0-43.929,30.255-79.546,67.565-79.546 c29.844,0,54.043,28.497,54.043,63.636c0-35.139,24.201-63.636,54.043-63.636c21.813,0,41.194,12.154,53.544,31.037 c8.812,13.434,14.021,30.255,14.021,48.509c0,54.911-65.091,108.607-121.608,137.496 C278.232,305.33,261.238,294.933,245.307,283.039z"/><path style="fill:#E54E5C;" d="M264.29,283.039c-24.214-29.323-44.469-67.804-44.469-106.893c0-38.334,14.157-70.332,32.992-77.863 c-3.959-1.089-8.082-1.684-12.325-1.684c-37.309,0-67.565,35.617-67.565,79.546c0,39.089,32.968,77.571,72.383,106.893 c15.931,11.893,32.926,22.29,49.225,30.603C284.518,305.33,274.077,294.933,264.29,283.039z"/><path style="fill:#F7CBA4;" d="M492.212,338.479l-170.166,70.978c-17.1,7.142-36.214,7.866-53.809,2.07L91.402,353.256 c-9.085-2.99-18.975-2.53-27.75,1.322l-7.015,3.071L16.641,264.89L0,226.308l82.961-55.269 c25.277-16.848,57.029-21.712,85.733-11.845c1.161,0.391,2.323,0.805,3.473,1.265l156.044,59.858 c7.084,2.703,12.328,8.073,15.088,14.479c2.852,6.613,3.094,14.318-0.035,21.448c-5.612,12.857-20.148,19.263-33.431,14.72 l-99.004-33.856c-6.13-2.105-12.489-1.667-17.963,0.69c-6.785,2.933-12.225,8.798-14.272,16.549 c-3.347,12.616,3.6,25.668,15.916,29.981l113.459,39.652c10.097,3.531,21.079,3.508,31.154,0l130.088-45.517 c15.951-5.589,33.477,2.128,40.147,17.595c0.034,0.081,0.069,0.161,0.092,0.23C516.396,312.696,508.657,331.613,492.212,338.479z"/><path style="fill:#E0B394;" d="M172.167,160.458c0,0-116.208,29.969-152.433,98.969c-1.035,1.978-2.07,3.795-3.094,5.462L0,226.308 l82.961-55.269c25.277-16.848,57.029-21.712,85.733-11.845C169.855,159.584,171.017,159.998,172.167,160.458z"/></symbol></svg>